<?xml version="1.0" standalone="no"?>
<!DOCTYPE svg PUBLIC "-//W3C//DTD SVG 20010904//EN"
 "http://www.w3.org/TR/2001/REC-SVG-20010904/DTD/svg10.dtd">
<svg version="1.0" xmlns="http://www.w3.org/2000/svg"
 width="575.000000pt" height="609.000000pt" viewBox="0 0 575.000000 609.000000"
 preserveAspectRatio="xMidYMid meet">

<g transform="translate(0.000000,609.000000) scale(0.100000,-0.100000)"
fill="#000000" stroke="none">
<path d="M2623 6080 c-572 -56 -1105 -271 -1548 -625 -455 -363 -817 -915
-969 -1475 -72 -266 -99 -474 -99 -765 0 -596 168 -1139 505 -1631 95 -139
128 -174 166 -174 38 0 70 27 78 65 5 26 -5 44 -67 130 -344 472 -528 1032
-529 1605 -1 1262 862 2356 2090 2649 232 56 329 66 625 66 296 0 393 -10 625
-66 493 -117 936 -365 1295 -724 631 -631 911 -1530 749 -2411 -68 -372 -202
-700 -420 -1030 -41 -61 -74 -120 -74 -131 0 -34 38 -73 71 -73 47 0 62 13
126 107 258 377 413 791 479 1273 23 167 23 516 1 691 -45 340 -129 623 -277
924 -279 568 -734 1024 -1305 1305 -289 143 -546 223 -860 270 -160 24 -512
34 -662 20z"/>
<path d="M2633 5524 c-39 -26 -40 -28 -46 -95 -8 -96 -28 -132 -101 -181 -34
-23 -63 -44 -66 -47 -3 -3 -27 -6 -55 -6 -99 -1 -205 -52 -246 -119 -24 -39
-25 -131 -3 -207 9 -30 68 -175 131 -324 104 -244 189 -454 207 -511 7 -22 6
-22 -56 4 -91 36 -230 42 -324 14 -79 -24 -150 -66 -213 -125 -45 -43 -128
-161 -149 -213 -9 -20 -28 -36 -62 -52 -27 -12 -75 -46 -106 -75 -35 -31 -55
-44 -50 -32 16 42 35 128 41 183 5 42 2 69 -10 102 -9 25 -20 68 -24 95 -8 57
-58 159 -93 192 -37 35 -92 53 -161 53 -133 0 -291 -74 -465 -219 l-59 -50
-72 12 c-140 21 -296 -27 -380 -118 -64 -70 -51 -96 29 -55 22 11 42 20 44 20
3 0 -8 -19 -24 -42 -77 -111 -46 -265 70 -341 44 -28 50 -37 56 -77 19 -128
89 -227 202 -282 56 -28 80 -34 150 -37 74 -3 135 5 186 25 11 4 15 2 11 -8
-7 -18 103 -124 197 -191 82 -59 204 -121 291 -149 37 -12 67 -25 67 -29 0
-13 -70 -171 -111 -250 -37 -71 -104 -149 -128 -149 -21 0 -22 23 -2 44 29 31
26 46 -9 46 -16 0 -33 1 -37 1 -5 1 -14 -11 -21 -26 -20 -39 -7 -114 21 -124
20 -8 20 -9 -12 -25 -38 -20 -64 -74 -55 -111 6 -24 47 -65 66 -65 5 0 7 28 6
63 l-3 62 43 -1 c54 -1 105 -40 149 -115 91 -158 117 -174 266 -174 l107 0 0
-25 c0 -54 -21 -260 -36 -360 -48 -318 -163 -645 -281 -794 -51 -65 -143 -136
-253 -195 -131 -69 -191 -66 -301 16 -62 47 -82 70 -94 111 -7 23 -6 23 30 8
21 -9 41 -13 46 -10 15 9 10 40 -9 57 -22 20 -101 32 -121 18 -23 -15 -27
-123 -7 -176 36 -92 170 -172 336 -201 363 -62 642 164 764 619 37 136 45 192
61 428 11 160 20 229 35 274 28 80 13 92 -42 34 -57 -59 -77 -121 -132 -399
-71 -355 -129 -523 -231 -665 -77 -108 -178 -170 -296 -181 -75 -7 -72 -2 41
55 42 22 99 58 128 80 207 164 388 688 409 1183 l6 148 34 26 c19 14 84 70
144 125 144 129 188 143 260 82 35 -30 63 -82 119 -223 99 -248 166 -319 302
-320 85 0 160 32 227 96 30 30 57 54 60 54 9 0 -9 -432 -24 -540 -69 -514
-284 -885 -547 -944 -34 -8 -47 10 -89 120 -17 44 -42 94 -56 113 -24 31 -29
33 -70 27 -24 -3 -96 -26 -159 -51 -63 -25 -136 -50 -162 -55 -53 -10 -121 0
-175 26 -20 10 -40 15 -43 11 -14 -14 34 -81 72 -101 32 -17 57 -21 144 -21
l105 0 121 57 c67 32 124 58 127 58 2 0 7 -26 11 -57 18 -157 101 -237 246
-237 88 0 155 26 235 93 27 22 53 41 56 41 4 0 12 -14 19 -31 20 -48 90 -113
136 -127 134 -40 287 22 329 132 l17 43 24 -24 c37 -37 86 -53 161 -53 83 0
144 27 179 79 26 40 43 124 26 135 -5 3 -31 3 -57 -1 -36 -4 -49 -11 -57 -29
-9 -19 -8 -28 6 -43 17 -19 17 -20 -8 -36 -15 -10 -47 -20 -71 -23 -52 -5
-157 14 -197 36 -24 14 -29 14 -52 -2 -14 -9 -38 -35 -53 -57 -65 -99 -219
-107 -287 -15 -13 17 -38 66 -56 109 -17 42 -38 77 -45 77 -9 0 4 33 35 93 27
50 65 139 84 196 95 273 127 500 127 885 l0 218 23 -25 c50 -54 148 -47 257
18 105 63 109 62 109 -30 0 -237 65 -536 157 -720 97 -194 260 -374 407 -452
l79 -40 -52 5 c-94 9 -199 -64 -250 -174 -43 -92 -11 -100 69 -18 117 118 194
144 251 83 16 -17 47 -65 70 -107 107 -197 186 -272 324 -308 192 -52 449 52
594 239 66 86 86 140 86 232 0 106 -35 184 -111 255 -70 63 -130 83 -232 78
-128 -6 -218 -63 -273 -170 -38 -74 -68 -90 -181 -96 -116 -6 -216 17 -333 77
-199 102 -314 228 -429 471 -78 166 -128 379 -141 610 l-7 115 25 -25 c14 -14
41 -52 59 -85 59 -106 153 -145 277 -115 67 16 164 79 198 129 16 22 31 40 35
41 3 0 15 -16 27 -35 60 -102 201 -107 308 -11 27 24 58 63 68 86 l20 41 50
-6 c110 -13 219 41 245 121 12 34 10 128 -2 140 -3 3 -36 10 -73 15 -72 10
-98 2 -93 -30 5 -28 -72 -19 -145 17 -112 56 -204 159 -317 357 -84 149 -171
285 -181 285 -28 0 13 -163 71 -288 94 -200 230 -354 375 -424 47 -23 47 -23
19 -28 -28 -5 -29 -7 -26 -57 4 -60 -13 -100 -67 -156 -56 -60 -107 -79 -156
-61 -9 4 -37 38 -61 75 -26 40 -51 69 -61 69 -9 0 -52 -36 -95 -80 -80 -83
-156 -130 -211 -130 -42 0 -81 24 -123 77 -60 75 -107 123 -136 139 -55 29
-127 13 -217 -47 -33 -22 -75 -43 -93 -46 -29 -4 -118 11 -118 21 0 2 7 23 15
46 24 68 20 136 -10 165 -30 31 -40 31 -71 -1 -21 -20 -25 -32 -21 -62 9 -77
-124 -292 -206 -331 -58 -28 -87 -21 -132 31 -59 70 -173 312 -161 343 2 7 47
46 100 89 52 42 111 95 130 119 84 103 147 242 181 402 24 116 24 117 51 44
43 -114 105 -169 191 -169 78 0 115 18 185 91 l67 70 6 -38 c52 -296 110 -427
255 -574 108 -109 157 -134 261 -134 66 0 81 3 118 28 107 71 127 265 42 399
-85 133 -265 143 -328 18 -69 -135 32 -330 170 -330 99 0 151 156 81 240 -42
50 -124 39 -124 -16 0 -32 27 -51 51 -36 16 10 19 9 25 -16 3 -15 7 -33 10
-40 2 -7 -1 -23 -6 -37 -14 -37 -58 -34 -98 7 -61 64 -79 155 -43 215 40 65
126 48 181 -35 73 -111 79 -246 12 -306 -51 -45 -167 -26 -240 38 -58 51 -162
186 -199 259 -72 144 -125 365 -108 453 l7 39 30 -70 c35 -84 56 -108 124
-141 105 -51 215 -28 222 47 4 40 -17 59 -63 59 -40 0 -47 -7 -33 -33 10 -19
8 -20 -27 -14 -56 9 -79 29 -144 126 -59 87 -98 122 -153 135 -22 5 -31 1 -44
-19 -21 -32 -33 -31 -110 5 -41 20 -87 54 -129 96 -55 55 -65 70 -65 100 0 19
2 34 5 34 2 0 24 -21 47 -47 56 -60 106 -83 186 -83 60 0 63 -1 99 -41 48 -53
81 -69 145 -69 66 0 94 18 109 70 7 22 14 40 17 40 3 0 37 -31 76 -68 101 -96
148 -117 259 -117 85 0 90 1 113 28 54 63 1 150 -65 108 -12 -8 -12 -13 2 -34
9 -14 13 -27 10 -31 -24 -24 -154 22 -222 79 l-33 29 62 12 c66 14 118 40 190
98 l44 35 43 -45 c71 -74 126 -82 218 -34 l57 30 20 -25 c85 -108 267 -51 470
147 66 64 82 116 54 182 -18 42 -70 70 -112 60 -24 -6 -25 -5 -15 14 6 11 11
40 11 64 0 51 4 57 50 85 162 99 231 336 151 517 l-20 46 90 0 89 0 -36 50
c-82 114 -220 204 -374 245 -96 25 -349 32 -465 11 -108 -18 -228 -57 -310
-100 -85 -44 -85 -44 -31 12 28 30 72 61 105 76 31 14 67 36 80 50 13 14 36
28 52 31 40 9 36 23 -13 45 -127 58 -330 -8 -489 -158 -122 -115 -215 -272
-251 -426 -12 -54 -14 -56 -44 -56 -61 0 -104 92 -104 226 0 68 -12 72 -65 23
-64 -59 -110 -132 -141 -227 -14 -43 -34 -83 -43 -89 -36 -23 -40 -3 -25 132
31 286 68 446 150 645 91 222 104 260 104 325 0 69 -19 108 -74 150 -41 31
-164 75 -221 79 -56 3 -148 64 -174 114 -18 35 -39 149 -32 180 3 19 -78 52
-129 52 -33 0 -58 -8 -87 -26z m-125 -674 c61 -27 154 -124 183 -189 47 -107
74 -156 84 -154 6 2 13 36 16 76 5 56 16 93 46 159 46 97 69 118 131 118 60 0
96 -19 180 -96 l71 -65 -39 -80 c-22 -45 -46 -114 -55 -154 -16 -70 -20 -77
-81 -134 -43 -40 -74 -79 -92 -118 -26 -55 -27 -66 -27 -205 l0 -148 -85 0
c-119 0 -205 25 -269 79 -42 35 -51 49 -51 75 0 49 -27 140 -61 208 -34 67
-61 138 -53 138 2 0 32 -12 65 -26 34 -14 63 -23 66 -21 8 9 -50 47 -88 57
-64 18 -99 58 -168 194 -61 121 -63 127 -47 150 29 45 188 156 221 156 5 0 29
-9 53 -20z m366 -2 c-5 -7 -21 -33 -36 -58 -15 -24 -35 -70 -44 -102 -9 -32
-20 -58 -25 -58 -5 0 -26 26 -48 59 -38 56 -124 141 -142 141 -5 0 -9 4 -9 9
0 13 48 17 193 19 92 2 117 -1 111 -10z m1711 -542 c165 -44 313 -152 371
-271 25 -51 29 -72 29 -141 0 -73 -3 -88 -35 -149 -19 -38 -39 -70 -45 -71 -5
-2 -19 11 -30 28 -11 17 -32 40 -48 52 -38 28 -137 33 -213 11 -70 -20 -218
-93 -296 -146 -31 -22 -59 -39 -62 -39 -3 0 -8 21 -12 46 -8 56 -50 108 -101
125 -84 28 -189 -6 -325 -104 l-78 -56 -5 27 c-15 75 -78 142 -132 142 l-25 0
37 68 c147 268 378 442 653 492 67 13 247 4 317 -14z m-1499 -18 c-3 -13 -6
-26 -6 -30 0 -5 -7 -8 -15 -8 -8 0 -30 -14 -50 -31 -19 -17 -35 -28 -35 -24 0
14 24 52 53 83 37 38 62 43 53 10z m-16 -86 c0 -12 -19 -33 -77 -86 -65 -60
-61 -31 7 42 44 48 70 64 70 44z m-18 -112 c-2 -17 -13 -35 -23 -40 -10 -6
-34 -31 -54 -57 -27 -36 -35 -41 -35 -25 0 36 20 76 58 115 44 45 60 47 54 7z
m-1732 -27 c23 -13 80 -96 80 -115 0 -3 -49 -13 -110 -23 -60 -11 -110 -22
-110 -27 0 -4 12 -6 28 -3 97 15 109 14 152 -8 83 -42 97 -122 48 -271 -92
-279 -339 -511 -557 -524 -138 -8 -222 36 -276 143 -27 54 -30 69 -29 150 1
105 20 161 89 265 120 178 349 366 508 416 60 18 143 17 177 -3z m1720 -69 c0
-9 -11 -24 -24 -35 -13 -10 -29 -32 -36 -49 -15 -36 -30 -39 -30 -7 0 25 23
62 55 89 25 22 35 22 35 2z m-621 -119 c51 -28 128 -101 117 -112 -3 -3 -27
-9 -54 -14 -27 -4 -69 -17 -95 -29 l-47 -22 -46 23 c-86 41 -142 105 -128 144
21 54 162 59 253 10z m-1763 -4 c-4 -6 -28 -11 -54 -10 l-47 0 45 18 c44 17
69 14 56 -8z m2117 -61 c4 0 7 -30 7 -67 l0 -68 -25 43 c-14 24 -34 56 -45 72
-27 38 -26 39 18 29 20 -5 40 -9 45 -9z m331 -1 c45 -36 31 -51 -50 -55 -39
-2 -90 -10 -113 -18 l-41 -15 0 43 c0 42 1 44 38 54 67 18 136 14 166 -9z
m1674 -145 c30 -20 31 -74 2 -74 -24 0 -27 -27 -5 -56 22 -30 18 -48 -23 -95
-67 -78 -82 -101 -82 -130 0 -51 8 -59 60 -59 38 0 59 8 109 40 64 41 81 48
81 29 0 -23 -22 -48 -88 -102 -147 -121 -240 -156 -276 -105 -21 30 -20 67 4
135 11 32 20 61 20 66 0 6 -36 -24 -79 -66 -159 -152 -199 -167 -252 -94 -17
23 -38 59 -46 80 -8 20 -20 37 -27 37 -7 0 -50 -32 -96 -72 -47 -39 -107 -82
-135 -94 -122 -57 -222 -9 -256 124 -6 23 -16 42 -23 42 -6 0 -49 -31 -95 -69
-114 -94 -160 -116 -240 -116 -63 0 -64 0 -106 47 -26 29 -47 64 -55 95 -7 26
-14 50 -16 52 -2 2 -39 -29 -83 -68 -108 -95 -161 -121 -247 -121 -43 0 -75 6
-94 17 -35 20 -67 76 -76 131 -4 23 -9 42 -13 42 -3 0 -40 -30 -81 -66 -100
-88 -156 -116 -245 -121 -46 -3 -79 1 -95 9 -37 20 -69 74 -76 129 -4 27 -8
49 -11 49 -2 0 -43 -32 -91 -71 -102 -83 -149 -109 -195 -109 -45 0 -57 15
-57 72 0 53 16 90 86 199 24 38 41 69 36 69 -28 0 -106 -69 -244 -217 -88 -95
-115 -105 -147 -52 -24 39 -35 115 -26 170 13 77 153 228 224 242 27 6 71 -16
71 -34 0 -5 -38 -50 -84 -99 -78 -82 -106 -123 -92 -137 9 -10 56 26 178 135
142 126 208 173 258 179 42 6 52 -4 65 -65 6 -30 2 -37 -58 -100 -86 -90 -127
-149 -127 -184 0 -24 4 -28 29 -28 26 0 101 35 148 70 11 8 35 40 53 70 50 81
64 98 131 152 101 81 165 108 253 108 69 0 77 -2 92 -25 45 -69 -26 -148 -227
-250 -114 -58 -129 -69 -129 -91 0 -41 42 -74 94 -74 104 0 256 93 295 180 30
66 147 175 241 223 63 32 81 37 143 37 101 0 131 -35 92 -109 -34 -66 -197
-177 -297 -203 -47 -11 -48 -13 -48 -50 0 -56 26 -78 95 -78 92 0 233 86 279
169 37 70 211 217 306 260 53 24 122 27 139 7 20 -24 15 -72 -12 -119 -49 -83
-137 -139 -137 -87 0 11 -5 20 -10 20 -23 0 -115 -54 -156 -92 -54 -50 -60
-94 -18 -133 23 -22 37 -25 95 -25 61 0 77 5 159 46 92 48 120 73 170 155 29
48 149 150 243 207 177 107 268 -11 117 -152 -53 -49 -80 -58 -80 -26 0 26
-20 25 -73 -1 -96 -49 -155 -117 -141 -162 15 -50 43 -67 110 -67 119 0 245
69 329 182 63 85 145 147 287 219 134 68 229 86 276 53z m-3395 -345 c-25 -44
-145 -171 -177 -188 -14 -8 -26 -18 -26 -23 0 -12 208 -10 230 2 16 9 25 4 53
-26 29 -32 41 -38 88 -41 48 -4 59 -1 99 26 l45 30 18 -35 c47 -91 202 -83
326 15 l37 29 33 -40 c47 -56 100 -78 187 -78 92 0 159 21 237 74 63 43 64 43
77 22 12 -19 12 -20 -3 -8 -13 11 -23 7 -71 -32 -108 -88 -256 -161 -411 -202
-104 -28 -379 -26 -487 4 -149 41 -290 111 -416 206 -49 36 -56 39 -83 29 -16
-6 -29 -10 -29 -9 0 2 25 20 56 41 57 40 173 158 202 207 9 15 20 28 25 28 4
0 0 -14 -10 -31z m2260 -259 c11 -54 -5 -115 -33 -130 -15 -8 -29 -7 -54 5
-43 21 -91 71 -77 80 6 3 23 -7 37 -24 19 -23 34 -31 59 -31 19 0 36 3 38 8 8
13 -12 52 -27 52 -8 0 -19 8 -25 17 -7 14 -3 24 22 45 18 15 36 26 42 24 5 -1
14 -22 18 -46z m-851 -69 l72 -6 -35 -26 c-96 -73 -268 -155 -431 -207 -363
-117 -699 -107 -973 28 -80 40 -241 143 -200 128 6 -1 58 -22 117 -46 176 -70
388 -112 558 -112 234 1 475 81 658 219 69 53 81 65 71 78 -7 8 11 0 40 -18
42 -26 66 -34 123 -38z m486 -165 c81 -44 80 -40 35 -131 -35 -69 -80 -115
-114 -115 -44 0 -83 68 -140 245 l-51 156 23 18 c22 18 23 18 98 -58 49 -49
102 -90 149 -115z m-398 -167 c-49 -242 -152 -409 -338 -552 -33 -26 -64 -47
-69 -47 -4 0 -17 15 -29 33 l-21 32 60 35 c107 63 233 222 298 379 35 84 79
248 79 294 0 17 8 39 18 50 16 19 17 17 20 -51 2 -43 -5 -110 -18 -173z m-90
87 c-24 -110 -70 -223 -128 -316 -62 -100 -110 -150 -204 -215 l-78 -54 -43
15 c-23 9 -71 16 -107 17 -91 1 -132 -23 -271 -159 -123 -120 -176 -153 -244
-154 -74 0 -122 34 -192 138 -66 98 -90 123 -136 143 l-28 12 39 17 c21 10 55
33 74 52 l34 35 11 -70 c21 -130 101 -200 232 -201 55 -1 74 4 113 26 114 67
185 236 204 481 l7 85 81 12 c188 27 435 107 572 185 32 19 64 34 71 34 8 1 6
-24 -7 -83z m-1105 -136 c3 -6 -1 -13 -10 -16 -19 -8 -30 0 -20 15 8 14 22 14
30 1z m294 -97 c0 -43 -4 -96 -8 -118 l-9 -40 -1 45 c-2 61 -16 110 -46 154
l-24 36 44 0 45 0 -1 -77z m-144 23 c46 -46 59 -169 29 -281 -17 -68 -52 -111
-96 -121 -40 -8 -49 3 -55 72 -7 73 13 124 56 150 32 19 49 53 36 73 -3 6 -24
11 -45 11 -32 0 -43 -6 -64 -33 -39 -52 -56 -101 -56 -167 0 -66 9 -90 48
-132 l25 -28 -30 9 c-79 23 -99 57 -90 159 13 156 110 312 195 312 13 0 34
-11 47 -24z m2890 -545 c-20 -40 -32 -46 -40 -20 -4 11 -5 22 -3 23 4 2 52 24
56 25 1 1 -4 -12 -13 -28z m-122 -1 c36 0 37 -1 37 -35 l0 -35 -49 0 c-55 0
-56 0 -66 49 -7 32 -6 34 16 28 13 -4 41 -7 62 -7z m350 -1285 c50 -21 104
-71 128 -116 42 -84 15 -172 -85 -274 -105 -106 -239 -185 -350 -206 -45 -8
-67 -7 -109 5 -74 22 -118 63 -188 176 -59 97 -129 180 -179 212 -23 15 -20
15 35 1 68 -18 247 -22 311 -6 l40 10 18 -51 c50 -140 205 -199 293 -111 62
62 30 145 -58 145 -40 0 -41 -1 -34 -27 7 -29 23 -45 37 -37 4 3 8 -2 8 -11 0
-28 -43 -39 -79 -20 -109 56 -89 230 34 306 37 23 128 25 178 4z"/>
<path d="M3130 4635 c0 -36 -36 -103 -78 -147 -20 -21 -31 -38 -24 -38 21 0
80 60 101 104 22 44 28 106 11 106 -5 0 -10 -11 -10 -25z"/>
<path d="M2300 4605 c0 -24 20 -56 64 -103 33 -36 65 -55 109 -66 45 -11 30
11 -20 30 -60 22 -98 56 -128 114 -17 31 -24 39 -25 25z"/>
<path d="M2550 4291 c0 -6 4 -11 9 -11 23 0 52 -75 75 -192 14 -70 32 -142 40
-160 15 -32 15 -32 10 32 -9 99 -30 177 -71 259 -34 68 -63 100 -63 72z"/>
<path d="M1111 3803 c-31 -15 -95 -65 -151 -120 -54 -51 -100 -93 -104 -93 -3
0 5 23 19 50 14 28 21 50 16 50 -16 0 -98 -112 -140 -192 -81 -151 -100 -254
-56 -302 21 -23 32 -26 87 -26 80 0 137 26 238 107 171 139 300 334 300 456 0
88 -8 97 -88 97 -54 0 -79 -6 -121 -27z"/>
<path d="M2436 3549 c-68 -36 -165 -154 -143 -175 7 -7 112 47 156 80 39 29
71 73 71 99 0 23 -35 22 -84 -4z"/>
<path d="M2955 3553 c-79 -41 -178 -173 -130 -173 62 0 205 125 205 180 0 15
-40 12 -75 -7z"/>
<path d="M4609 3526 c-166 -69 -288 -156 -309 -221 -14 -43 0 -75 34 -75 40 0
140 76 241 182 138 145 142 159 34 114z"/>
<path d="M1288 1983 c-54 -58 -157 -245 -238 -433 -91 -211 -227 -428 -343
-549 -73 -75 -169 -146 -256 -189 -70 -34 -81 -37 -166 -37 -85 0 -94 2 -129
29 -46 35 -71 87 -56 116 14 27 27 25 34 -5 8 -30 36 -33 59 -7 23 25 21 45
-7 71 -46 43 -129 37 -161 -13 -47 -71 -24 -168 56 -240 120 -108 308 -125
472 -45 151 74 291 211 419 409 81 125 143 264 223 500 95 277 126 344 177
376 21 14 38 29 38 34 0 6 -22 10 -48 10 -40 0 -53 -5 -74 -27z"/>
<path d="M4620 1721 c0 -65 126 -333 253 -536 138 -222 318 -396 475 -461 69
-28 180 -32 236 -9 55 23 111 79 137 138 35 77 34 200 -3 279 -51 110 -154
188 -250 188 -61 0 -103 -21 -140 -72 -91 -121 -48 -280 83 -313 24 -6 28 -2
43 35 22 56 8 84 -40 78 -39 -5 -44 3 -44 74 0 41 5 54 29 79 49 49 109 34
175 -42 44 -51 70 -126 70 -199 0 -97 -49 -153 -134 -154 -140 -2 -326 179
-623 606 -167 240 -224 315 -247 328 -18 10 -20 8 -20 -19z"/>
</g>
</svg>
